<?xml version="1.0" encoding="UTF-8" standalone="no"?>
<svg
   xmlns:dc="http://purl.org/dc/elements/1.1/"
   xmlns:cc="http://creativecommons.org/ns#"
   xmlns:rdf="http://www.w3.org/1999/02/22-rdf-syntax-ns#"
   xmlns:svg="http://www.w3.org/2000/svg"
   xmlns="http://www.w3.org/2000/svg"
   viewBox="0 0 563.21252 109.75"
   height="109.75"
   width="563.21252"
   xml:space="preserve"
   version="1.1"
   id="svg4206"><metadata
     id="metadata4212"><rdf:RDF><cc:Work
         rdf:about=""><dc:format>image/svg+xml</dc:format><dc:type
           rdf:resource="http://purl.org/dc/dcmitype/StillImage" /><dc:title></dc:title></cc:Work></rdf:RDF></metadata><defs
     id="defs4210" /><g
     transform="matrix(1.25,0,0,-1.25,0,109.75)"
     id="g4214"><g
       transform="scale(0.1,0.1)"
       id="g4216"><path
         id="path4218"
         style="fill:#100f0d;fill-opacity:1;fill-rule:nonzero;stroke:none"
         d="m 110,372.961 502.5,0 0,505 -502.5,0 0,-505 z" /><path
         id="path4220"
         style="fill:#ed1e24;fill-opacity:1;fill-rule:nonzero;stroke:none"
         d="m 0,155.461 185,0 0,187.5 -185,0 0,-187.5 z" /><g
         transform="scale(10,10)"
         id="g4222"><text
           id="text4224"
           style="font-variant:normal;font-weight:normal;font-size:14px;font-family:Impact;-inkscape-font-specification:Impact;writing-mode:lr-tb;fill:#ed1e24;fill-opacity:1;fill-rule:nonzero;stroke:none"
           transform="matrix(1,0,0,-1,73.75,52.5461)"><tspan
             id="tspan4226"
             y="0"
             x="0 7.2379999 17.275999 24.388">SMAS</tspan></text>
</g><g
         transform="scale(10,10)"
         id="g4228"><text
           id="text4230"
           style="font-variant:normal;font-weight:normal;font-size:14px;font-family:Arial;-inkscape-font-specification:ArialMT;writing-mode:lr-tb;fill:#100f0d;fill-opacity:1;fill-rule:nonzero;stroke:none"
           transform="matrix(1,0,0,-1,109.75,52.5461)"><tspan
             id="tspan4232"
             y="0"
             x="0 9.3380003 19.445999 22.554001 29.554001 36.554001 40.445999 52.108002 59.891998 66.891998 74.676003 82.459999 86.351997 91.014 98.797997 106.582 109.69 116.69 119.81992 129.15791 133.81992 137.71191 141.60391 150.94191 158.72592 165.72592 168.83391 176.61792 180.50992">Swiss Mechatronic Art Society</tspan></text>
</g><g
         transform="scale(10,10)"
         id="g4234"><text
           id="text4236"
           style="font-variant:normal;font-weight:normal;font-size:14px;font-family:Impact;-inkscape-font-specification:Impact;writing-mode:lr-tb;fill:#ed1e24;fill-opacity:1;fill-rule:nonzero;stroke:none"
           transform="matrix(1,0,0,-1,73.75,36.5461)"><tspan
             id="tspan4238"
             y="0"
             x="0 7.2379999 14.476 21.587999">SSAM</tspan></text>
</g><g
         transform="scale(10,10)"
         id="g4240"><text
           id="text4242"
           style="font-variant:normal;font-weight:normal;font-size:14px;font-family:Arial;-inkscape-font-specification:ArialMT;writing-mode:lr-tb;fill:#100f0d;fill-opacity:1;fill-rule:nonzero;stroke:none"
           transform="matrix(1,0,0,-1,109.75,36.5461)"><tspan
             id="tspan4244"
             y="0"
             x="0 9.3380003 17.122 24.122 27.23 35.014 38.905998 46.689999 50.582001 59.919998 67.704002 70.811996 77.811996 84.811996 92.596001 96.487999 104.272 107.38 116.718 121.38 125.272 129.164 140.826 148.61 155.61 163.394 171.17799 175.07001 179.73199 187.51601 195.3 198.408 206.192 213.976">Société Suisse d’Art Méchatronique</tspan></text>
</g><g
         transform="scale(10,10)"
         id="g4246"><text
           id="text4248"
           style="font-variant:normal;font-weight:normal;font-size:14px;font-family:Impact;-inkscape-font-specification:Impact;writing-mode:lr-tb;fill:#ed1e24;fill-opacity:1;fill-rule:nonzero;stroke:none"
           transform="matrix(1,0,0,-1,73.75,20.5461)"><tspan
             id="tspan4250"
             y="0"
             x="0 7.2379999 14.952 24.99">SGMK</tspan></text>
</g><g
         transform="scale(10,10)"
         id="g4252"><text
           id="text4254"
           style="font-variant:normal;font-weight:normal;font-size:14px;font-family:Arial;-inkscape-font-specification:ArialMT;writing-mode:lr-tb;fill:#100f0d;fill-opacity:1;fill-rule:nonzero;stroke:none"
           transform="matrix(1,0,0,-1,109.75,20.5461)"><tspan
             id="tspan4256"
             y="0"
             x="0 9.3380003 16.337999 24.122 34.23 42.014 45.122002 52.122002 59.905998 64.568001 67.676003 74.676003 81.676003 89.459999 97.244003 101.136 112.028 119.812 126.812 134.59599 137.70399 140.812 147.812 154.812 162.59599 170.38 174.272 178.164 182.056 185.948 193.73199 198.394 202.286 213.948 221.73199 228.73199 236.51601 244.3 248.192 252.854 260.638 268.422 271.53 278.53 285.53 293.314 301.09799 304.98999 314.328 322.112 329.896 336.896">Schweizerische Gesellschaft für Mechatronische Kunst</tspan><tspan
             id="tspan4258"
             y="16"
             x="-36"> </tspan></text>
</g><g
         transform="scale(10,10)"
         id="g4260"><text
           id="text4262"
           style="font-variant:normal;font-weight:normal;font-size:14px;font-family:Arial;-inkscape-font-specification:ArialMT;writing-mode:lr-tb;fill:#ed1e24;fill-opacity:1;fill-rule:nonzero;stroke:none"
           transform="matrix(1,0,0,-1,109.75,4.54609)"><tspan
             id="tspan4264"
             y="0"
             x="0 10.108 20.216 29.558985 33.450985 45.112984 52.896984 59.896984 67.680984 75.464989 79.356987 84.018982 91.802986 99.586983 102.69498 109.69498 117.47899 122.14098 126.03298 129.92499 136.92499">www.mechatronicart.ch</tspan></text>
</g></g></g></svg>