<?xml version="1.0" encoding="UTF-8" standalone="no"?>
<svg
   xmlns:dc="http://purl.org/dc/elements/1.1/"
   xmlns:cc="http://creativecommons.org/ns#"
   xmlns:rdf="http://www.w3.org/1999/02/22-rdf-syntax-ns#"
   xmlns:svg="http://www.w3.org/2000/svg"
   xmlns="http://www.w3.org/2000/svg"
   viewBox="0 0 600.57745 111.21928"
   height="111.21928"
   width="600.57745"
   xml:space="preserve"
   id="svg2"
   version="1.1"><metadata
     id="metadata8"><rdf:RDF><cc:Work
         rdf:about=""><dc:format>image/svg+xml</dc:format><dc:type
           rdf:resource="http://purl.org/dc/dcmitype/StillImage" /><dc:title></dc:title></cc:Work></rdf:RDF></metadata><defs
     id="defs6"><clipPath
       id="clipPath18"
       clipPathUnits="userSpaceOnUse"><path
         id="path16"
         d="M 0,841.89 H 595.276 V 0 H 0 Z" /></clipPath></defs><g
     transform="matrix(1.3333333,0,0,-1.3333333,-93.333331,617.96932)"
     id="g10"><g
       id="g12"><g
         clip-path="url(#clipPath18)"
         id="g14"><path
           id="path20"
           style="fill:#000000;fill-opacity:1;fill-rule:nonzero;stroke:none"
           d="m 81,463.477 h 50.25 v -50.5 H 81 Z" /><path
           id="path22"
           style="fill:#ed2024;fill-opacity:1;fill-rule:nonzero;stroke:none"
           d="M 88.5,391.227 H 70 v 18.75 h 18.5 z" /><text
           id="text26"
           style="font-variant:normal;font-weight:normal;font-stretch:normal;font-size:14px;font-family:Impact;-inkscape-font-specification:Impact;writing-mode:lr-tb;fill:#ed2024;fill-opacity:1;fill-rule:nonzero;stroke:none"
           transform="matrix(1,0,0,-1,143.75,428.2266)"><tspan
             id="tspan24"
             y="0"
             x="0 7.2379999 17.275999 24.388">SMAS</tspan></text>
<text
           id="text30"
           style="font-variant:normal;font-weight:normal;font-stretch:normal;font-size:14px;font-family:Arial;-inkscape-font-specification:ArialMT;writing-mode:lr-tb;fill:#000000;fill-opacity:1;fill-rule:nonzero;stroke:none"
           transform="matrix(1,0,0,-1,179.75,428.2266)"><tspan
             id="tspan28"
             y="0"
             x="0 9.3380003 19.445999 22.554001 29.554001 36.554001 40.445999 52.108002 59.891998 66.891998 74.676003 82.459999 86.351997 91.014 98.797997 106.582 109.69 116.69 119.826 129.164 133.826 137.718 141.61 150.948 158.73199 165.73199 168.84 176.62399 180.51601">Swiss Mechatronic Art Society</tspan></text>
<text
           id="text34"
           style="font-variant:normal;font-weight:normal;font-stretch:normal;font-size:14px;font-family:Impact;-inkscape-font-specification:Impact;writing-mode:lr-tb;fill:#ed2024;fill-opacity:1;fill-rule:nonzero;stroke:none"
           transform="matrix(1,0,0,-1,143.75,412.2266)"><tspan
             id="tspan32"
             y="0"
             x="0 7.2379999 14.476 21.587999">SSAM</tspan></text>
<text
           id="text38"
           style="font-variant:normal;font-weight:normal;font-stretch:normal;font-size:14px;font-family:Arial;-inkscape-font-specification:ArialMT;writing-mode:lr-tb;fill:#000000;fill-opacity:1;fill-rule:nonzero;stroke:none"
           transform="matrix(1,0,0,-1,179.75,412.2266)"><tspan
             id="tspan36"
             y="0"
             x="0 9.3380003 17.122 24.122 27.23 35.014 38.905998 46.689999 50.582001 59.919998 67.704002 70.811996 77.811996 84.811996 92.596001 96.487999 104.272 107.38 116.718 121.38 125.272 129.164 140.826 148.61 155.61 163.394 171.17799 175.07001 179.73199 187.51601 195.3 198.408 206.192 213.976">Société Suisse d’Art Méchatronique</tspan></text>
<text
           id="text42"
           style="font-variant:normal;font-weight:normal;font-stretch:normal;font-size:14px;font-family:Impact;-inkscape-font-specification:Impact;writing-mode:lr-tb;fill:#ed2024;fill-opacity:1;fill-rule:nonzero;stroke:none"
           transform="matrix(1,0,0,-1,143.75,396.2266)"><tspan
             id="tspan40"
             y="0"
             x="0 7.2379999 14.952 24.99">SGMK</tspan></text>
<text
           id="text46"
           style="font-variant:normal;font-weight:normal;font-stretch:normal;font-size:14px;font-family:Arial;-inkscape-font-specification:ArialMT;writing-mode:lr-tb;fill:#000000;fill-opacity:1;fill-rule:nonzero;stroke:none"
           transform="matrix(1,0,0,-1,179.75,396.2266)"><tspan
             id="tspan44"
             y="0"
             x="0 9.3380003 16.337999 24.122 34.23 42.014 45.122002 52.122002 59.905998 64.568001 67.676003 74.676003 81.676003 89.459999 97.244003 101.136 112.028 119.812 126.812 134.59599 137.70399 140.812 147.812 154.812 162.59599 170.38 174.272 178.164 182.056 185.948 193.73199 198.394 202.286 213.948 221.73199 228.73199 236.51601 244.3 248.192 252.854 260.638 268.422 271.53 278.53 285.53 293.314 301.09799 304.98999 314.328 322.112 329.896 336.896">Schweizerische Gesellschaft für Mechatronische Kunst</tspan></text>
<text
           id="text50"
           style="font-variant:normal;font-weight:normal;font-stretch:normal;font-size:14px;font-family:Arial;-inkscape-font-specification:ArialMT;writing-mode:lr-tb;fill:#ed2024;fill-opacity:1;fill-rule:nonzero;stroke:none"
           transform="matrix(1,0,0,-1,179.75,380.2266)"><tspan
             id="tspan48"
             y="0"
             x="0 10.108 20.216 29.554001 33.445999 45.108002 52.891998 59.891998 67.676003 75.459999 79.351997 84.014 91.797997 99.582001 102.69 109.69 117.474 122.136 126.028 129.92 136.92">www.mechatronicart.ch</tspan></text>
</g></g></g></svg>